<mxfile host="65bd71144e">
    <diagram id="x9r8RZbo4gAxxGb5SdDx" name="Page-1">
        <mxGraphModel dx="7280" dy="4717" grid="0" gridSize="10" guides="1" tooltips="1" connect="1" arrows="1" fold="1" page="1" pageScale="1" pageWidth="3000" pageHeight="3000" math="0" shadow="0">
            <root>
                <mxCell id="0"/>
                <mxCell id="1" parent="0"/>
                <mxCell id="2" value="" style="whiteSpace=wrap;html=1;aspect=fixed;strokeWidth=10;fontFamily=Tahoma;fontSize=28;fillColor=none;rounded=1;" vertex="1" parent="1">
                    <mxGeometry x="1725.99" y="-378.07" width="513.47" height="513.47" as="geometry"/>
                </mxCell>
                <mxCell id="5" value="" style="shape=mxgraph.cisco.storage.relational_database;html=1;pointerEvents=1;dashed=0;fillColor=#036897;strokeColor=#ffffff;strokeWidth=2;verticalLabelPosition=bottom;verticalAlign=top;align=center;outlineConnect=0;fontFamily=Helvetica;fontSize=28;fontColor=default;rounded=1;" vertex="1" parent="1">
                    <mxGeometry x="1895.99" y="-216.8" width="205.72" height="240" as="geometry"/>
                </mxCell>
                <mxCell id="12" value="&lt;font face=&quot;Tahoma&quot; style=&quot;font-size: 28px;&quot;&gt;&lt;span style=&quot;font-size: 28px;&quot;&gt;&lt;b style=&quot;font-size: 28px;&quot;&gt;DATABASE&lt;br style=&quot;font-size: 28px;&quot;&gt;(MySQL)&lt;br style=&quot;font-size: 28px;&quot;&gt;&lt;/b&gt;&lt;/span&gt;&lt;/font&gt;" style="text;html=1;align=center;verticalAlign=middle;resizable=0;points=[];autosize=1;strokeColor=none;fillColor=none;rounded=1;fontSize=28;" vertex="1" parent="1">
                    <mxGeometry x="1913.8500000000001" y="21.930000000000007" width="170" height="80" as="geometry"/>
                </mxCell>
                <mxCell id="15" value="" style="line;strokeWidth=4;direction=west;html=1;perimeter=backbonePerimeter;points=[];outlineConnect=0;fontFamily=Tahoma;fontSize=28;fillColor=none;rotation=0;rounded=1;" vertex="1" parent="1">
                    <mxGeometry x="1725.99" y="-298.07" width="510" height="10" as="geometry"/>
                </mxCell>
                <mxCell id="18" value="" style="edgeStyle=none;html=1;fontSize=28;" edge="1" parent="1" target="15">
                    <mxGeometry relative="1" as="geometry">
                        <mxPoint x="1962.4900000000005" y="-309.8000000000002" as="sourcePoint"/>
                    </mxGeometry>
                </mxCell>
                <mxCell id="25" value="" style="whiteSpace=wrap;html=1;aspect=fixed;strokeWidth=10;fontFamily=Tahoma;fontSize=28;fillColor=none;rounded=1;" vertex="1" parent="1">
                    <mxGeometry x="1019.72" y="-378.07" width="513.47" height="513.47" as="geometry"/>
                </mxCell>
                <mxCell id="26" value="" style="shape=mxgraph.cisco.servers.file_server;html=1;pointerEvents=1;dashed=0;fillColor=#036897;strokeColor=#ffffff;strokeWidth=2;verticalLabelPosition=bottom;verticalAlign=top;align=center;outlineConnect=0;rounded=1;fontSize=28;" vertex="1" parent="1">
                    <mxGeometry x="1171.89" y="-239.8" width="162.95" height="219.8" as="geometry"/>
                </mxCell>
                <mxCell id="31" value="&lt;b style=&quot;font-size: 28px;&quot;&gt;&lt;font style=&quot;font-size: 28px;&quot; face=&quot;Tahoma&quot;&gt;APPLICATION SERVER&lt;br style=&quot;font-size: 28px;&quot;&gt;(Python 3.12)&lt;br style=&quot;font-size: 28px;&quot;&gt;&lt;/font&gt;&lt;/b&gt;" style="text;html=1;align=center;verticalAlign=middle;resizable=0;points=[];autosize=1;strokeColor=none;fillColor=none;rounded=1;fontSize=28;" vertex="1" parent="1">
                    <mxGeometry x="1083.3700000000001" width="340" height="80" as="geometry"/>
                </mxCell>
                <mxCell id="33" value="" style="line;strokeWidth=4;direction=west;html=1;perimeter=backbonePerimeter;points=[];outlineConnect=0;fontFamily=Tahoma;fontSize=28;fillColor=none;rotation=0;rounded=1;" vertex="1" parent="1">
                    <mxGeometry x="1019.72" y="-298.07" width="510" height="10" as="geometry"/>
                </mxCell>
                <mxCell id="39" value="" style="whiteSpace=wrap;html=1;aspect=fixed;strokeWidth=10;fontFamily=Tahoma;fontSize=28;fillColor=none;rounded=1;" vertex="1" parent="1">
                    <mxGeometry x="1569.49" y="-1440" width="513.47" height="513.47" as="geometry"/>
                </mxCell>
                <mxCell id="42" value="" style="shape=mxgraph.cisco.servers.standard_host;html=1;pointerEvents=1;dashed=0;fillColor=#036897;strokeColor=#ffffff;strokeWidth=2;verticalLabelPosition=bottom;verticalAlign=top;align=center;outlineConnect=0;rounded=1;fontSize=28;" vertex="1" parent="1">
                    <mxGeometry x="1752.14" y="-1322.62" width="150.35" height="216.79" as="geometry"/>
                </mxCell>
                <mxCell id="43" value="&lt;b style=&quot;font-size: 28px;&quot;&gt;&lt;font style=&quot;font-size: 28px;&quot; face=&quot;Tahoma&quot;&gt;WEB SERVER&lt;br style=&quot;font-size: 28px;&quot;&gt;(NGINX)&lt;br style=&quot;font-size: 28px;&quot;&gt;&lt;/font&gt;&lt;/b&gt;" style="text;html=1;align=center;verticalAlign=middle;resizable=0;points=[];autosize=1;strokeColor=none;fillColor=none;rounded=1;fontSize=28;" vertex="1" parent="1">
                    <mxGeometry x="1710.99" y="-1110" width="210" height="80" as="geometry"/>
                </mxCell>
                <mxCell id="46" value="&lt;b style=&quot;font-size: 28px;&quot;&gt;&lt;font style=&quot;font-size: 28px;&quot; face=&quot;Tahoma&quot;&gt;CODE BASE&lt;/font&gt;&lt;/b&gt;" style="text;html=1;align=center;verticalAlign=middle;resizable=0;points=[];autosize=1;strokeColor=none;fillColor=none;rounded=1;fontSize=28;" vertex="1" parent="1">
                    <mxGeometry x="1565.99" y="-1025" width="180" height="50" as="geometry"/>
                </mxCell>
                <mxCell id="47" value="" style="line;strokeWidth=4;direction=west;html=1;perimeter=backbonePerimeter;points=[];outlineConnect=0;fontFamily=Tahoma;fontSize=28;fillColor=none;rotation=0;rounded=1;" vertex="1" parent="1">
                    <mxGeometry x="1569.49" y="-1360" width="510" height="10" as="geometry"/>
                </mxCell>
                <mxCell id="48" value="" style="aspect=fixed;pointerEvents=1;shadow=0;dashed=0;html=1;strokeColor=none;labelPosition=center;verticalLabelPosition=bottom;verticalAlign=top;align=center;fillColor=#00188D;shape=mxgraph.mscae.enterprise.folder;strokeWidth=10;fontFamily=Tahoma;fontSize=28;rounded=1;" vertex="1" parent="1">
                    <mxGeometry x="1610.0600000000002" y="-1105.83" width="91.86" height="79" as="geometry"/>
                </mxCell>
                <mxCell id="49" value="" style="edgeStyle=none;html=1;fontSize=28;" edge="1" parent="1" source="50" target="47">
                    <mxGeometry relative="1" as="geometry"/>
                </mxCell>
                <mxCell id="50" value="&lt;b style=&quot;font-size: 28px;&quot;&gt;&lt;font style=&quot;font-size: 28px;&quot; face=&quot;Tahoma&quot;&gt;8.8.8.8&lt;/font&gt;&lt;/b&gt;" style="text;html=1;align=center;verticalAlign=middle;resizable=0;points=[];autosize=1;strokeColor=none;fillColor=none;rounded=1;arcSize=0;fontSize=28;" vertex="1" parent="1">
                    <mxGeometry x="1745.99" y="-1421.73" width="120" height="50" as="geometry"/>
                </mxCell>
                <mxCell id="52" value="" style="shape=mxgraph.cisco.computers_and_peripherals.upc;sketch=0;html=1;pointerEvents=1;dashed=0;fillColor=#036897;strokeColor=#ffffff;strokeWidth=2;verticalLabelPosition=bottom;verticalAlign=top;align=center;outlineConnect=0;fontSize=28;" vertex="1" parent="1">
                    <mxGeometry x="1376.5" y="-37.86999999999995" width="137.35" height="129.8" as="geometry"/>
                </mxCell>
                <mxCell id="54" value="" style="shape=mxgraph.cisco.computers_and_peripherals.upc;sketch=0;html=1;pointerEvents=1;dashed=0;fillColor=#036897;strokeColor=#ffffff;strokeWidth=2;verticalLabelPosition=bottom;verticalAlign=top;align=center;outlineConnect=0;fontSize=28;" vertex="1" parent="1">
                    <mxGeometry x="1920.7699999999998" y="-1158.47" width="158.72" height="150" as="geometry"/>
                </mxCell>
                <mxCell id="55" value="" style="shape=mxgraph.cisco.security.firewall;sketch=0;html=1;pointerEvents=1;dashed=0;fillColor=#036897;strokeColor=#ffffff;strokeWidth=2;verticalLabelPosition=bottom;verticalAlign=top;align=center;outlineConnect=0;fontSize=28;" vertex="1" parent="1">
                    <mxGeometry x="1259.72" y="-736.53" width="90.9" height="210" as="geometry"/>
                </mxCell>
                <mxCell id="56" value="" style="shape=mxgraph.cisco.security.firewall;sketch=0;html=1;pointerEvents=1;dashed=0;fillColor=#036897;strokeColor=#ffffff;strokeWidth=2;verticalLabelPosition=bottom;verticalAlign=top;align=center;outlineConnect=0;fontSize=28;" vertex="1" parent="1">
                    <mxGeometry x="1399.72" y="-1308.47" width="90.9" height="210" as="geometry"/>
                </mxCell>
                <mxCell id="57" value="" style="shape=mxgraph.cisco.security.firewall;sketch=0;html=1;pointerEvents=1;dashed=0;fillColor=#036897;strokeColor=#ffffff;strokeWidth=2;verticalLabelPosition=bottom;verticalAlign=top;align=center;outlineConnect=0;fontSize=28;" vertex="1" parent="1">
                    <mxGeometry x="1943.59" y="-750" width="90.9" height="210" as="geometry"/>
                </mxCell>
                <mxCell id="58" value="&lt;b style=&quot;font-size: 28px;&quot;&gt;&lt;font color=&quot;#ff0000&quot; style=&quot;font-size: 28px;&quot; face=&quot;Tahoma&quot;&gt;Firewall&lt;/font&gt;&lt;/b&gt;" style="text;html=1;align=center;verticalAlign=middle;resizable=0;points=[];autosize=1;strokeColor=none;fillColor=none;rounded=1;fontSize=28;" vertex="1" parent="1">
                    <mxGeometry x="1210.81" y="-510" width="140" height="50" as="geometry"/>
                </mxCell>
                <mxCell id="59" value="&lt;b style=&quot;font-size: 28px;&quot;&gt;&lt;font color=&quot;#ff0000&quot; style=&quot;font-size: 28px;&quot; face=&quot;Tahoma&quot;&gt;Firewall&lt;/font&gt;&lt;/b&gt;" style="text;html=1;align=center;verticalAlign=middle;resizable=0;points=[];autosize=1;strokeColor=none;fillColor=none;rounded=1;fontSize=28;" vertex="1" parent="1">
                    <mxGeometry x="1369.72" y="-1080" width="140" height="50" as="geometry"/>
                </mxCell>
                <mxCell id="60" value="&lt;b style=&quot;font-size: 28px;&quot;&gt;&lt;font color=&quot;#ff0000&quot; style=&quot;font-size: 28px;&quot; face=&quot;Tahoma&quot;&gt;Firewall&lt;/font&gt;&lt;/b&gt;" style="text;html=1;align=center;verticalAlign=middle;resizable=0;points=[];autosize=1;strokeColor=none;fillColor=none;rounded=1;fontSize=28;" vertex="1" parent="1">
                    <mxGeometry x="1919.0400000000002" y="-526.53" width="140" height="50" as="geometry"/>
                </mxCell>
                <mxCell id="62" value="&lt;b style=&quot;font-size: 28px;&quot;&gt;&lt;font color=&quot;#ff0000&quot; style=&quot;font-size: 28px;&quot; face=&quot;Tahoma&quot;&gt;Monitoring&lt;/font&gt;&lt;/b&gt;" style="text;html=1;align=center;verticalAlign=middle;resizable=0;points=[];autosize=1;strokeColor=none;fillColor=none;rounded=1;fontSize=28;" vertex="1" parent="1">
                    <mxGeometry x="1865.99" y="-1000" width="180" height="50" as="geometry"/>
                </mxCell>
                <mxCell id="64" value="&lt;b style=&quot;font-size: 28px;&quot;&gt;&lt;font color=&quot;#ff0000&quot; style=&quot;font-size: 28px;&quot; face=&quot;Tahoma&quot;&gt;Monitoring&lt;/font&gt;&lt;/b&gt;" style="text;html=1;align=center;verticalAlign=middle;resizable=0;points=[];autosize=1;strokeColor=none;fillColor=none;rounded=1;fontSize=28;" vertex="1" parent="1">
                    <mxGeometry x="1319.72" y="85.39999999999998" width="180" height="50" as="geometry"/>
                </mxCell>
                <mxCell id="68" value="" style="shape=mxgraph.cisco.computers_and_peripherals.upc;sketch=0;html=1;pointerEvents=1;dashed=0;fillColor=#036897;strokeColor=#ffffff;strokeWidth=2;verticalLabelPosition=bottom;verticalAlign=top;align=center;outlineConnect=0;fontSize=28;" vertex="1" parent="1">
                    <mxGeometry x="2076.5" y="-37.86999999999995" width="137.35" height="129.8" as="geometry"/>
                </mxCell>
                <mxCell id="69" value="&lt;b style=&quot;font-size: 28px;&quot;&gt;&lt;font color=&quot;#ff0000&quot; style=&quot;font-size: 28px;&quot; face=&quot;Tahoma&quot;&gt;Monitoring&lt;/font&gt;&lt;/b&gt;" style="text;html=1;align=center;verticalAlign=middle;resizable=0;points=[];autosize=1;strokeColor=none;fillColor=none;rounded=1;fontSize=28;" vertex="1" parent="1">
                    <mxGeometry x="2019.72" y="85.39999999999998" width="180" height="50" as="geometry"/>
                </mxCell>
                <mxCell id="70" value="" style="edgeStyle=none;orthogonalLoop=1;jettySize=auto;html=1;endArrow=classic;startArrow=classic;endSize=8;startSize=8;strokeWidth=5;fontSize=28;" edge="1" parent="1">
                    <mxGeometry width="100" relative="1" as="geometry">
                        <mxPoint x="1036.220000000001" y="-988.27" as="sourcePoint"/>
                        <mxPoint x="1379.72" y="-1140" as="targetPoint"/>
                        <Array as="points"/>
                    </mxGeometry>
                </mxCell>
                <mxCell id="72" value="" style="edgeStyle=none;orthogonalLoop=1;jettySize=auto;html=1;endArrow=classic;startArrow=classic;endSize=8;startSize=8;strokeWidth=5;fontSize=28;" edge="1" parent="1">
                    <mxGeometry width="100" relative="1" as="geometry">
                        <mxPoint x="1369.720000000001" y="-640" as="sourcePoint"/>
                        <mxPoint x="1629.72" y="-890" as="targetPoint"/>
                        <Array as="points">
                            <mxPoint x="1619.72" y="-650"/>
                        </Array>
                    </mxGeometry>
                </mxCell>
                <mxCell id="73" value="" style="edgeStyle=none;orthogonalLoop=1;jettySize=auto;html=1;endArrow=classic;startArrow=classic;endSize=8;startSize=8;strokeWidth=5;fontSize=28;" edge="1" parent="1">
                    <mxGeometry width="100" relative="1" as="geometry">
                        <mxPoint x="1395.99" y="-400" as="sourcePoint"/>
                        <mxPoint x="1889.72" y="-540" as="targetPoint"/>
                        <Array as="points">
                            <mxPoint x="1395.99" y="-540"/>
                        </Array>
                    </mxGeometry>
                </mxCell>
                <mxCell id="74" value="" style="shape=mxgraph.cisco.computers_and_peripherals.web_browser;html=1;pointerEvents=1;dashed=0;fillColor=#036897;strokeColor=#ffffff;strokeWidth=2;verticalLabelPosition=bottom;verticalAlign=top;align=center;outlineConnect=0;rounded=1;fontSize=28;" vertex="1" parent="1">
                    <mxGeometry x="-450.28" y="-678.21" width="200.07" height="206.53" as="geometry"/>
                </mxCell>
                <mxCell id="75" value="" style="shape=mxgraph.cisco.wireless.ground_terminal;html=1;pointerEvents=1;dashed=0;fillColor=#036897;strokeColor=#ffffff;strokeWidth=2;verticalLabelPosition=bottom;verticalAlign=top;align=center;outlineConnect=0;rounded=1;fontSize=28;" vertex="1" parent="1">
                    <mxGeometry x="-116.77999999999997" y="-1378.21" width="99" height="122" as="geometry"/>
                </mxCell>
                <mxCell id="76" value="" style="shape=mxgraph.cisco.storage.cloud;html=1;pointerEvents=1;dashed=0;fillColor=#036897;strokeColor=#ffffff;strokeWidth=2;verticalLabelPosition=bottom;verticalAlign=top;align=center;outlineConnect=0;rounded=1;fontSize=28;" vertex="1" parent="1">
                    <mxGeometry x="-170.27999999999997" y="-1328.21" width="186" height="106" as="geometry"/>
                </mxCell>
                <mxCell id="77" value="&lt;b style=&quot;font-size: 28px;&quot;&gt;&lt;font style=&quot;font-size: 28px;&quot; face=&quot;Tahoma&quot;&gt;INTERNET&lt;/font&gt;&lt;/b&gt;" style="text;html=1;align=center;verticalAlign=middle;resizable=0;points=[];autosize=1;strokeColor=none;fillColor=none;rounded=1;fontSize=28;" vertex="1" parent="1">
                    <mxGeometry x="-156.77999999999997" y="-1225" width="170" height="50" as="geometry"/>
                </mxCell>
                <mxCell id="78" value="&lt;font face=&quot;Tahoma&quot; style=&quot;font-size: 28px;&quot;&gt;&lt;span style=&quot;font-size: 28px;&quot;&gt;&lt;b style=&quot;font-size: 28px;&quot;&gt;WEB CLIENT&lt;/b&gt;&lt;/span&gt;&lt;/font&gt;" style="text;html=1;align=center;verticalAlign=middle;resizable=0;points=[];autosize=1;rounded=1;fontSize=28;" vertex="1" parent="1">
                    <mxGeometry x="-447" y="-449.54" width="200" height="50" as="geometry"/>
                </mxCell>
                <mxCell id="79" value="" style="points=[[0.015,0.015,0],[0.985,0.015,0],[0.985,0.985,0],[0.015,0.985,0],[0.25,0,0],[0.5,0,0],[0.75,0,0],[1,0.25,0],[1,0.5,0],[1,0.75,0],[0.75,1,0],[0.5,1,0],[0.25,1,0],[0,0.75,0],[0,0.5,0],[0,0.25,0]];verticalLabelPosition=bottom;html=1;verticalAlign=top;aspect=fixed;align=center;pointerEvents=1;shape=mxgraph.cisco19.dns_server;fillColor=#005073;strokeColor=none;strokeWidth=10;fontFamily=Tahoma;fontSize=28;rounded=1;" vertex="1" parent="1">
                    <mxGeometry x="29.720000000000027" y="-1358.95" width="78.65" height="143" as="geometry"/>
                </mxCell>
                <mxCell id="80" value="" style="shape=mxgraph.cisco.storage.cloud;pointerEvents=1;dashed=0;fillColor=#036897;strokeColor=#ffffff;strokeWidth=2;verticalLabelPosition=bottom;verticalAlign=top;align=center;outlineConnect=0;rounded=1;fontSize=28;" vertex="1" parent="1">
                    <mxGeometry x="29.720000000000027" y="-278.01" width="186" height="106" as="geometry"/>
                </mxCell>
                <mxCell id="81" value="&lt;b style=&quot;font-size: 28px;&quot;&gt;&lt;font style=&quot;font-size: 28px;&quot; face=&quot;Tahoma&quot;&gt;HTTP Request&lt;br style=&quot;font-size: 28px;&quot;&gt;www.foobar.com&lt;br style=&quot;font-size: 28px;&quot;&gt;&lt;/font&gt;&lt;/b&gt;" style="text;html=1;align=center;verticalAlign=middle;resizable=0;points=[];autosize=1;strokeColor=none;fillColor=none;rounded=1;fontSize=28;" vertex="1" parent="1">
                    <mxGeometry x="-482" y="-1058.21" width="270" height="80" as="geometry"/>
                </mxCell>
                <mxCell id="82" value="&lt;b style=&quot;font-size: 28px;&quot;&gt;&lt;font style=&quot;font-size: 28px;&quot; face=&quot;Tahoma&quot;&gt;Encrypeted HTTP Response:&lt;br style=&quot;font-size: 28px;&quot;&gt;Static File&lt;br style=&quot;font-size: 28px;&quot;&gt;&lt;/font&gt;&lt;/b&gt;" style="text;html=1;align=center;verticalAlign=middle;resizable=0;points=[];autosize=1;strokeColor=none;fillColor=none;rounded=1;fontSize=28;" vertex="1" parent="1">
                    <mxGeometry x="219.72000000000003" y="-265.01" width="420" height="80" as="geometry"/>
                </mxCell>
                <mxCell id="83" value="&lt;b style=&quot;font-size: 28px;&quot;&gt;&lt;font style=&quot;font-size: 28px;&quot; face=&quot;Tahoma&quot;&gt;Name: www.foobar.com&lt;br style=&quot;font-size: 28px;&quot;&gt;IP Adress: 8.8.8.8&lt;br style=&quot;font-size: 28px;&quot;&gt;&lt;/font&gt;&lt;/b&gt;" style="text;html=1;align=left;verticalAlign=middle;resizable=0;points=[];autosize=1;strokeColor=none;fillColor=none;rounded=1;fontSize=28;" vertex="1" parent="1">
                    <mxGeometry x="143.00000000000003" y="-1295.95" width="370" height="80" as="geometry"/>
                </mxCell>
                <mxCell id="84" value="&lt;b style=&quot;font-size: 28px;&quot;&gt;&lt;font style=&quot;font-size: 28px;&quot; face=&quot;Tahoma&quot;&gt;INTERNET&lt;/font&gt;&lt;/b&gt;" style="text;html=1;align=center;verticalAlign=middle;resizable=0;points=[];autosize=1;strokeColor=none;fillColor=none;rounded=1;fontSize=28;" vertex="1" parent="1">
                    <mxGeometry x="49.72000000000003" y="-173.01" width="170" height="50" as="geometry"/>
                </mxCell>
                <mxCell id="85" value="" style="outlineConnect=0;dashed=0;verticalLabelPosition=bottom;verticalAlign=top;align=center;html=1;shape=mxgraph.aws3.classic_load_balancer;fillColor=#F58534;gradientColor=none;fontSize=28;" vertex="1" parent="1">
                    <mxGeometry x="829.72" y="-1078.21" width="195.5" height="204" as="geometry"/>
                </mxCell>
                <mxCell id="86" value="&lt;b style=&quot;font-size: 28px;&quot;&gt;&lt;font style=&quot;font-size: 28px;&quot; face=&quot;Tahoma&quot;&gt;Load Balancer&lt;/font&gt;&lt;/b&gt;" style="text;html=1;align=center;verticalAlign=middle;resizable=0;points=[];autosize=1;strokeColor=none;fillColor=none;rounded=1;fontColor=#00331A;fontSize=28;" vertex="1" parent="1">
                    <mxGeometry x="800.22" y="-848.2099999999999" width="220" height="50" as="geometry"/>
                </mxCell>
                <mxCell id="87" value="" style="outlineConnect=0;dashed=0;verticalLabelPosition=bottom;verticalAlign=top;align=center;html=1;shape=mxgraph.aws3.ssl_padlock;fillColor=#D2D3D3;gradientColor=none;fontColor=#00331A;fontSize=28;" vertex="1" parent="1">
                    <mxGeometry x="813.95" y="-1410" width="185.77" height="230" as="geometry"/>
                </mxCell>
                <mxCell id="88" value="&lt;b style=&quot;font-size: 28px;&quot;&gt;&lt;font color=&quot;#ff0000&quot; style=&quot;font-size: 28px;&quot; face=&quot;Tahoma&quot;&gt;SSL&lt;/font&gt;&lt;/b&gt;" style="text;html=1;align=center;verticalAlign=middle;resizable=0;points=[];autosize=1;strokeColor=none;fillColor=none;rounded=1;fontSize=28;" vertex="1" parent="1">
                    <mxGeometry x="971.22" y="-1210.95" width="80" height="50" as="geometry"/>
                </mxCell>
                <mxCell id="89" value="Port 443" style="text;html=1;align=center;verticalAlign=middle;resizable=0;points=[];autosize=1;strokeColor=none;fillColor=none;fontSize=28;fontColor=#00331A;fontStyle=1" vertex="1" parent="1">
                    <mxGeometry x="874.72" y="-1139.04" width="130" height="50" as="geometry"/>
                </mxCell>
                <mxCell id="90" value="" style="edgeStyle=none;orthogonalLoop=1;jettySize=auto;html=1;strokeWidth=5;entryX=0.4;entryY=1.167;entryDx=0;entryDy=0;entryPerimeter=0;fontSize=28;" edge="1" parent="1">
                    <mxGeometry width="100" relative="1" as="geometry">
                        <mxPoint x="-338.9999999999993" y="-698.0299999999997" as="sourcePoint"/>
                        <mxPoint x="-340.28" y="-948.21" as="targetPoint"/>
                        <Array as="points"/>
                    </mxGeometry>
                </mxCell>
                <mxCell id="91" value="" style="edgeStyle=none;orthogonalLoop=1;jettySize=auto;html=1;strokeWidth=5;fontSize=28;" edge="1" parent="1">
                    <mxGeometry width="100" relative="1" as="geometry">
                        <mxPoint x="-355.28" y="-1068.21" as="sourcePoint"/>
                        <mxPoint x="-190.27999999999997" y="-1258.21" as="targetPoint"/>
                        <Array as="points">
                            <mxPoint x="-355.28" y="-1258.21"/>
                        </Array>
                    </mxGeometry>
                </mxCell>
                <mxCell id="92" value="" style="edgeStyle=none;orthogonalLoop=1;jettySize=auto;html=1;strokeWidth=5;fontSize=28;" edge="1" parent="1">
                    <mxGeometry width="100" relative="1" as="geometry">
                        <mxPoint x="129.72000000000003" y="-1289.4499999999998" as="sourcePoint"/>
                        <mxPoint x="789.72" y="-1290.21" as="targetPoint"/>
                        <Array as="points"/>
                    </mxGeometry>
                </mxCell>
                <mxCell id="93" value="&amp;nbsp;" style="edgeStyle=none;orthogonalLoop=1;jettySize=auto;html=1;strokeWidth=5;fontSize=28;" edge="1" parent="1">
                    <mxGeometry width="100" relative="1" as="geometry">
                        <mxPoint x="44.72000000000003" y="-1257" as="sourcePoint"/>
                        <mxPoint x="144.72000000000003" y="-1257" as="targetPoint"/>
                        <Array as="points"/>
                    </mxGeometry>
                </mxCell>
                <mxCell id="94" value="V" style="edgeStyle=none;orthogonalLoop=1;jettySize=auto;html=1;strokeWidth=5;exitX=0.498;exitY=1.6;exitDx=0;exitDy=0;exitPerimeter=0;fontSize=28;" edge="1" parent="1" source="86">
                    <mxGeometry x="0.0468" y="-47" width="100" relative="1" as="geometry">
                        <mxPoint x="779.72" y="-648.21" as="sourcePoint"/>
                        <mxPoint x="239.72000000000003" y="-181.20999999999952" as="targetPoint"/>
                        <Array as="points">
                            <mxPoint x="909.72" y="-178.20999999999998"/>
                        </Array>
                        <mxPoint x="1" as="offset"/>
                    </mxGeometry>
                </mxCell>
                <mxCell id="95" value="" style="edgeStyle=none;orthogonalLoop=1;jettySize=auto;html=1;strokeWidth=5;fontSize=28;" edge="1" parent="1">
                    <mxGeometry width="100" relative="1" as="geometry">
                        <mxPoint x="-0.2799999999999727" y="-218.20999999999998" as="sourcePoint"/>
                        <mxPoint x="-360.28" y="-378.21" as="targetPoint"/>
                        <Array as="points">
                            <mxPoint x="-360.28" y="-218.20999999999998"/>
                        </Array>
                    </mxGeometry>
                </mxCell>
            </root>
        </mxGraphModel>
    </diagram>
</mxfile>